# xmcd CD database file
#
# Track frame offsets:
#	150
#	13791
#	24551
#	43673
#	53756
#	66783
#	87444
#	100655
#	112488
#	124247
#	139533
#	147842
#	156934
#	169705
#	184984
#
# Disc length: 2753 seconds
#
# Revision: 0
# Processed by: cddbd v1.5.1PL0 Copyright (c) Steve Scherf et al.
# Submitted via: CDex 1.50beta10
#
DISCID=d40abf0f
DTITLE=Red Wing Blackbirds Ragtime Jazz Band - RWB
DYEAR=2003
DGENRE=Jazz
TTITLE0=Potato Head Blues
TTITLE1=Fidgity Feet
TTITLE2=Midnight Choo Choo
TTITLE3=Charleston
TTITLE4=Alexander's Ragtime Band
TTITLE5=Panama
TTITLE6=Knockout Drops
TTITLE7=High Society
TTITLE8=Kansas City Stomps
TTITLE9=Hello Central
TTITLE10=Ostrich Walk
TTITLE11=Palesteena
TTITLE12=Red Pepper
TTITLE13=Tiger Rag
TTITLE14=Tishomingo
EXTD=YEAR: 2003
EXTT0=
EXTT1=
EXTT2=
EXTT3=
EXTT4=
EXTT5=
EXTT6=
EXTT7=
EXTT8=
EXTT9=
EXTT10=
EXTT11=
EXTT12=
EXTT13=
EXTT14=
PLAYORDER=
